<?xml version="1.0" encoding="utf-8"?>
<!-- Generator: Adobe Illustrator 17.0.1, SVG Export Plug-In . SVG Version: 6.00 Build 0)  -->
<!DOCTYPE svg PUBLIC "-//W3C//DTD SVG 1.1//EN" "http://www.w3.org/Graphics/SVG/1.1/DTD/svg11.dtd">
<svg version="1.1" id="Слой_1" xmlns="http://www.w3.org/2000/svg" xmlns:xlink="http://www.w3.org/1999/xlink" x="0px" y="0px"
	 width="68.847px" height="68.847px" viewBox="0 0 68.847 68.847" enable-background="new 0 0 68.847 68.847" xml:space="preserve">
<g opacity="0.5">
	<rect x="5" y="5" fill="#57BD82" width="63.347" height="63.347"/>
	<path fill="#57BD82" d="M68.847,68.847H4.5V4.5h64.347V68.847z M5.5,67.847h62.347V5.5H5.5V67.847z"/>
</g>
<g>
	<path fill="#212121" d="M35.443,35.385h-8.675v12.448h-2.543V17.974h9.7c3.186,0,5.674,0.771,7.465,2.315
		c1.791,1.543,2.687,3.701,2.687,6.473c0,1.912-0.561,3.598-1.682,5.06c-1.121,1.461-2.625,2.472-4.512,3.031l7.465,12.714v0.267
		h-2.687L35.443,35.385z M26.768,33.252H34.5c2.119,0,3.821-0.603,5.106-1.808s1.928-2.766,1.928-4.683
		c0-2.108-0.67-3.745-2.01-4.909c-1.34-1.164-3.22-1.746-5.64-1.746h-7.116C26.768,20.106,26.768,33.252,26.768,33.252z"/>
</g>
<g>
	<path fill="#212121" d="M65.347,65.347H0V0h65.347V65.347z M2,63.347h61.347V2H2V63.347z"/>
</g>
</svg>
